<?xml version="1.0" standalone="no"?><!DOCTYPE svg PUBLIC "-//W3C//DTD SVG 1.1//EN" "http://www.w3.org/Graphics/SVG/1.1/DTD/svg11.dtd"><svg t="1780739380676" class="icon" viewBox="0 0 1024 1024" version="1.1" xmlns="http://www.w3.org/2000/svg" p-id="4457" xmlns:xlink="http://www.w3.org/1999/xlink" width="200" height="200"><path d="M512 311.466667l139.52 139.946666c3.413333 2.986667 5.973333 5.973333 8.533333 9.386667l118.613334-124.16 0.426666-0.853333c9.386667-9.386667 9.386667-25.173333 0-34.986667l-110.933333-110.506667a24.448 24.448 0 0 0-34.986667 0z m-38.826667-38.826667l121.173334-121.173333c31.146667-31.146667 81.493333-31.146667 112.64 0l110.933333 110.506666c30.72 31.146667 31.146667 81.493333 0 112.64l-142.506667 149.333334c-2.56 17.92-11.093333 34.133333-23.466666 46.933333l-81.066667 81.066667c-12.8 12.373333-29.013333 20.906667-46.933333 23.466666l-149.333334 142.506667c-31.146667 31.146667-81.493333 30.72-112.64 0l-110.506666-110.933333c-31.146667-31.146667-31.146667-81.493333 0-112.64l121.173333-121.173334-92.586667-92.586666c-32.853333-32.853333-32.853333-86.613333 0-119.466667l81.066667-81.066667c32.853333-32.853333 86.613333-32.853333 119.466667 0l92.586666 92.586667z m-282.88 360.533333c-9.813333 9.813333-9.813333 25.6 0 34.986667l110.506667 110.933333c9.813333 9.813333 25.6 9.813333 34.986667 0l0.426666-0.426666 124.586667-118.613334a85.333333 85.333333 0 0 1-9.386667-8.106666L311.466667 512z m28.586667-333.226666c-11.52 11.52-11.52 30.293333 0 41.813333l271.36 271.36c11.52 11.52 30.293333 11.52 41.813333 0l81.066667-81.066667c5.546667-5.546667 8.533333-13.226667 8.533333-20.906666a29.013333 29.013333 0 0 0-8.533333-20.906667L341.76 218.88a29.610667 29.610667 0 0 0-41.813333 0zM759.04 512c14.933333 0 27.306667 12.373333 27.306667 27.306667 0 136.533333-110.506667 247.04-247.04 247.04a27.562667 27.562667 0 0 1 0-55.04c106.24 0 192-85.76 192-192 0-14.933333 12.373333-27.306667 27.733333-27.306667z m136.96 27.306667c0 197.12-159.573333 356.693333-356.693333 356.693333a27.861333 27.861333 0 0 1-24.746667-13.226667 27.733333 27.733333 0 0 1 24.746667-41.813333c80.213333 0 157.013333-31.573333 213.333333-88.32a300.16 300.16 0 0 0 88.32-213.333333 27.733333 27.733333 0 1 1 41.813333-24.746667c8.533333 5.12 13.653333 14.933333 13.226667 24.746667z" fill="#d4237a" p-id="4458"></path><path d="M518.058667 305.450667l139.52 139.946666-6.058667 6.016 5.632-6.4c3.328 2.901333 6.570667 6.485333 9.728 10.666667l-6.826667 5.12-6.186666-5.888 118.613333-124.16 6.186667 5.888-7.637334-3.84 1.066667-2.048 0.981333-0.981333a15.36 15.36 0 0 0 4.522667-11.306667c0-4.608-1.536-8.533333-4.693333-11.776l6.186666-5.888-6.016 6.058667-110.933333-110.506667a15.701333 15.701333 0 0 0-11.477333-4.864 15.658667 15.658667 0 0 0-11.477334 4.821333l-121.173333 121.173334L512 311.466667z m-18.133334 5.973333L627.2 184.32a32.128 32.128 0 0 1 23.509333-9.856c9.130667 0 16.938667 3.242667 23.509334 9.813333l111.018666 110.592 0.085334 0.085334a32.853333 32.853333 0 0 1 9.386666 23.552 31.786667 31.786667 0 0 1-9.557333 23.338666l-6.016-6.016 7.637333 3.84-1.024 1.962667-126.421333 132.394667-6.058667-8.064a52.650667 52.650667 0 0 0-7.338666-8.106667l-0.213334-0.170667-139.733333-140.16z m-32.768-32.768l-92.586666-92.586667a75.776 75.776 0 0 0-53.717334-22.144 75.776 75.776 0 0 0-53.717333 22.186667l-81.066667 81.066667a75.776 75.776 0 0 0-22.144 53.717333 75.776 75.776 0 0 0 22.186667 53.674667l98.56 98.602666-127.146667 127.189334a68.522667 68.522667 0 0 0-20.906666 50.304c0 19.626667 6.954667 36.394667 20.906666 50.304l110.506667 110.933333c13.909333 13.738667 30.72 20.650667 50.304 20.693333 19.626667 0.042667 36.394667-6.826667 50.261333-20.693333l0.042667-0.085333 151.381333-144.469334 2.730667-0.384c15.872-2.261333 29.952-9.301333 42.197333-21.162666l80.981334-80.938667c11.733333-12.202667 18.773333-26.24 21.034666-42.112l0.426667-2.730667 144.426667-151.381333 0.085333-0.042667c13.824-13.866667 20.736-30.634667 20.693333-50.261333a69.418667 69.418667 0 0 0-20.736-50.346667l-110.933333-110.506666a68.565333 68.565333 0 0 0-50.261333-20.821334c-19.626667 0-36.394667 6.912-50.304 20.821334L473.173333 284.714667z m12.032-12.032l-6.016 6.016-6.016-6.016 121.173334-121.173333a87.424 87.424 0 0 1 62.336-25.898667 87.338667 87.338667 0 0 1 62.336 25.856L823.978667 256a88.192 88.192 0 0 1 25.685333 62.293333 87.338667 87.338667 0 0 1-25.728 62.336l-6.016-6.016 6.186667 5.888-142.506667 149.333334-6.186667-5.888 8.448 1.194666a91.733333 91.733333 0 0 1-25.898666 51.754667l-81.152 81.194667a91.52 91.52 0 0 1-51.626667 25.770666l-1.237333-8.448 5.888 6.186667-149.333334 142.506667-5.888-6.186667 6.016 6.016a87.338667 87.338667 0 0 1-62.378666 25.685333A88.192 88.192 0 0 1 256 823.978667l-110.506667-110.933334a87.424 87.424 0 0 1-25.856-62.336 87.338667 87.338667 0 0 1 25.856-62.336l121.173334-121.173333 6.016 6.016-6.016 6.016-92.586667-92.586667a92.672 92.672 0 0 1-27.136-65.749333 92.672 92.672 0 0 1 27.136-65.749333l81.066667-81.066667a92.672 92.672 0 0 1 65.749333-27.136 92.672 92.672 0 0 1 65.749333 27.136z m-282.88 372.565333a15.872 15.872 0 0 0-4.821333 11.648c0 4.437333 1.536 8.106667 4.693333 11.178667l0.085334 0.042667 110.592 111.018666a15.829333 15.829333 0 0 0 11.605333 4.864 14.848 14.848 0 0 0 11.136-4.736l0.085333-0.085333 0.554667-0.554667 124.672-118.698666 5.888 6.186666-5.12 6.826667a95.488 95.488 0 0 1-10.282667-8.917333l-139.946666-139.946667L311.466667 512l6.016 6.016zM184.32 627.2L311.466667 499.925333l145.962666 146.005334c2.56 2.56 5.418667 4.992 8.490667 7.296l8.106667 6.058666-131.925334 125.568-5.888-6.186666 6.016 6.016-0.426666 0.426666-6.016-6.016 6.186666 5.888a31.232 31.232 0 0 1-23.509333 10.026667 32.298667 32.298667 0 0 1-23.722667-9.898667l-110.506666-110.933333 6.058666-6.016-5.888 6.186667a31.232 31.232 0 0 1-9.984-23.509334c0-9.216 3.285333-17.109333 9.813334-23.68zM224.853333 305.92a20.266667 20.266667 0 0 0-6.101333 14.890667c0 5.802667 2.005333 10.794667 6.101333 14.890666l271.36 271.36a20.266667 20.266667 0 0 0 14.890667 6.144 20.266667 20.266667 0 0 0 14.890667-6.144l81.066666-81.066666a20.224 20.224 0 0 0 6.016-14.890667 20.224 20.224 0 0 0-6.016-14.890667l-271.36-271.36a20.266667 20.266667 0 0 0-14.890666-6.101333 20.266667 20.266667 0 0 0-14.890667 6.101333zM212.906667 293.973333l81.066666-81.066666a36.693333 36.693333 0 0 1 26.922667-11.136 36.693333 36.693333 0 0 1 26.922667 11.093333l271.36 271.36a36.650667 36.650667 0 0 1 11.050666 26.965333 36.650667 36.650667 0 0 1-11.050666 26.922667l-81.066667 81.066667a36.693333 36.693333 0 0 1-26.922667 11.178666 36.693333 36.693333 0 0 1-26.922666-11.178666l-271.36-271.36a36.693333 36.693333 0 0 1-11.136-26.922667 36.693333 36.693333 0 0 1 11.093333-26.922667zM739.84 539.306667c0 27.264-5.248 53.333333-15.744 78.122666a198.485333 198.485333 0 0 1-42.922667 63.744 198.485333 198.485333 0 0 1-63.744 42.922667 198.912 198.912 0 0 1-78.122666 15.744v-8.533333l0.512 8.533333a18.432 18.432 0 0 0-12.8 5.930667 18.645333 18.645333 0 0 0-5.205334 13.269333c0 4.949333 1.706667 9.258667 5.205334 12.885333a18.602667 18.602667 0 0 0 12.8 5.888l-0.512 8.533334v-8.533334c32.384 0 63.317333-6.229333 92.885333-18.730666a236.373333 236.373333 0 0 0 75.818667-51.072 236.373333 236.373333 0 0 0 51.072-75.818667 236.202667 236.202667 0 0 0 18.730666-92.885333 18.048 18.048 0 0 0-5.546666-13.226667 18.048 18.048 0 0 0-13.226667-5.546667 18.645333 18.645333 0 0 0-13.653333 5.546667 17.92 17.92 0 0 0-5.546667 13.226667z m-17.066667 0c0-9.856 3.541333-18.304 10.666667-25.301334a35.114667 35.114667 0 0 1 25.6-10.538666c9.813333 0 18.261333 3.498667 25.301333 10.538666a34.517333 34.517333 0 0 1 10.538667 25.301334 253.013333 253.013333 0 0 1-20.053333 99.498666 253.312 253.312 0 0 1-54.784 81.237334 253.312 253.312 0 0 1-81.237334 54.741333 253.013333 253.013333 0 0 1-99.498666 20.096h-0.512a35.114667 35.114667 0 0 1-24.106667-11.178667 34.474667 34.474667 0 0 1-9.941333-24.661333c0-9.685333 3.285333-18.048 9.898666-25.002667a34.986667 34.986667 0 0 1 24.149334-11.264h0.512c24.96 0 48.768-4.778667 71.509333-14.378666 21.930667-9.258667 41.386667-22.357333 58.282667-39.253334 16.938667-16.938667 30.037333-36.394667 39.253333-58.325333a182.016 182.016 0 0 0 14.421333-71.509333z m155.733334-17.322667a18.133333 18.133333 0 0 0-19.498667-0.128 18.56 18.56 0 0 0-9.514667 17.066667V539.306667c0 41.301333-7.850667 80.938667-23.509333 118.869333a303.488 303.488 0 0 1-67.328 100.522667 303.36 303.36 0 0 1-100.48 67.285333 308.309333 308.309333 0 0 1-118.869333 23.509333H538.922667a18.304 18.304 0 0 0-9.685334 2.261334 18.261333 18.261333 0 0 0-7.253333 7.082666 18.261333 18.261333 0 0 0 0 19.712c1.664 2.773333 4.053333 4.992 7.210667 6.656a18.773333 18.773333 0 0 0 9.728 2.261334H539.306667a344.746667 344.746667 0 0 0 135.552-27.306667 345.130667 345.130667 0 0 0 110.677333-74.624 345.130667 345.130667 0 0 0 74.581333-110.677333 344.746667 344.746667 0 0 0 27.349334-135.552V538.922667a18.773333 18.773333 0 0 0-2.261334-9.728 18.304 18.304 0 0 0-6.826666-7.296z m8.661333-14.72a35.072 35.072 0 0 1 13.098667 13.909333 35.541333 35.541333 0 0 1 4.266666 18.517334l-8.533333-0.384h8.533333a361.642667 361.642667 0 0 1-28.672 142.208 362.112 362.112 0 0 1-78.250666 116.053333c-33.706667 33.706667-72.405333 59.818667-116.053334 78.293333a361.642667 361.642667 0 0 1-142.250666 28.672V896l0.384 8.533333a35.541333 35.541333 0 0 1-18.517334-4.266666 35.370667 35.370667 0 0 1-18.986666-31.744c0-6.570667 1.664-12.629333 4.949333-18.133334a34.944 34.944 0 0 1 13.952-13.653333 35.029333 35.029333 0 0 1 18.602667-4.266667l-0.384 8.490667v-8.533333a291.413333 291.413333 0 0 0 112.384-22.229334 286.72 286.72 0 0 0 94.933333-63.616 286.592 286.592 0 0 0 63.573333-94.890666 291.413333 291.413333 0 0 0 22.229334-112.384h8.533333l-8.533333 0.384a35.029333 35.029333 0 0 1 4.352-18.602667 34.602667 34.602667 0 0 1 13.44-13.824 36.650667 36.650667 0 0 1 36.778666-0.085333z" fill="#d4237a" p-id="4459"></path></svg>