<?xml version="1.0" standalone="no"?><!DOCTYPE svg PUBLIC "-//W3C//DTD SVG 1.1//EN" "http://www.w3.org/Graphics/SVG/1.1/DTD/svg11.dtd"><svg t="1783260926626" class="icon" viewBox="0 0 1024 1024" version="1.1" xmlns="http://www.w3.org/2000/svg" p-id="5266" xmlns:xlink="http://www.w3.org/1999/xlink" width="200" height="200"><path d="M896 256h-192V224a96 96 0 0 0-96-96h-192a96 96 0 0 0-96 96v32H128a64 64 0 0 0-64 64v448a64 64 0 0 0 64 64h768a64 64 0 0 0 64-64V320a64 64 0 0 0-64-64zM384 224a32 32 0 0 1 32-32h192a32 32 0 0 1 32 32v32h-256V224z m512 96v128h-128v-32a32 32 0 0 0-64 0v32H320v-32a32 32 0 1 0-64 0v32H128v-128h768z m0 448H128v-256h128v32a32 32 0 1 0 64 0v-32h384v32a32 32 0 0 0 64 0v-32h128v256z" p-id="5267" fill="#13227a"></path></svg>